<svg xmlns="http://www.w3.org/2000/svg" version="1.1" xmlns:xlink="http://www.w3.org/1999/xlink" xmlns:svgjs="http://svgjs.dev/svgjs" viewBox="0 0 800 800"><defs><linearGradient x1="50%" y1="0%" x2="50%" y2="100%" id="cccoil-grad"><stop stop-color="#FF0080" stop-opacity="1" offset="0%"></stop><stop stop-color="#b742ff" stop-opacity="1" offset="100%"></stop></linearGradient></defs><g stroke="url(#cccoil-grad)" fill="none" stroke-linecap="round"><circle r="313.5" cx="400" cy="400" stroke-width="6" stroke-dasharray="1438 1970" opacity="0.56"></circle><circle r="297" cx="400" cy="400" stroke-width="6" stroke-dasharray="1287 1866" transform="rotate(20, 400, 400)" opacity="0.74"></circle><circle r="280.5" cx="400" cy="400" stroke-width="6" stroke-dasharray="1144 1762" transform="rotate(40, 400, 400)" opacity="0.87"></circle><circle r="264" cx="400" cy="400" stroke-width="6" stroke-dasharray="1009 1659" transform="rotate(60, 400, 400)" opacity="0.24"></circle><circle r="247.5" cx="400" cy="400" stroke-width="6" stroke-dasharray="883 1555" transform="rotate(80, 400, 400)" opacity="0.94"></circle><circle r="231" cx="400" cy="400" stroke-width="6" stroke-dasharray="765 1451" transform="rotate(100, 400, 400)" opacity="0.31"></circle><circle r="214.5" cx="400" cy="400" stroke-width="6" stroke-dasharray="656 1348" transform="rotate(120, 400, 400)" opacity="0.98"></circle><circle r="198" cx="400" cy="400" stroke-width="6" stroke-dasharray="555 1244" transform="rotate(140, 400, 400)" opacity="0.16"></circle><circle r="181.5" cx="400" cy="400" stroke-width="6" stroke-dasharray="462 1140" transform="rotate(160, 400, 400)" opacity="0.97"></circle><circle r="165" cx="400" cy="400" stroke-width="6" stroke-dasharray="378 1037" transform="rotate(180, 400, 400)" opacity="0.38"></circle><circle r="148.5" cx="400" cy="400" stroke-width="6" stroke-dasharray="303 933" transform="rotate(200, 400, 400)" opacity="0.46"></circle><circle r="132" cx="400" cy="400" stroke-width="6" stroke-dasharray="235 829" transform="rotate(220, 400, 400)" opacity="0.42"></circle><circle r="115.5" cx="400" cy="400" stroke-width="6" stroke-dasharray="177 726" transform="rotate(240, 400, 400)" opacity="0.44"></circle><circle r="99" cx="400" cy="400" stroke-width="6" stroke-dasharray="126 622" transform="rotate(260, 400, 400)" opacity="0.54"></circle><circle r="82.5" cx="400" cy="400" stroke-width="6" stroke-dasharray="84 518" transform="rotate(280, 400, 400)" opacity="0.28"></circle><circle r="66" cx="400" cy="400" stroke-width="6" stroke-dasharray="50 415" transform="rotate(300, 400, 400)" opacity="0.62"></circle><circle r="49.5" cx="400" cy="400" stroke-width="6" stroke-dasharray="25 311" transform="rotate(320, 400, 400)" opacity="0.63"></circle><circle r="33" cx="400" cy="400" stroke-width="6" stroke-dasharray="8 207" transform="rotate(340, 400, 400)" opacity="0.43"></circle><circle r="16.5" cx="400" cy="400" stroke-width="6" stroke-dasharray="0 104" transform="rotate(360, 400, 400)" opacity="0.49"></circle></g></svg>